<mxfile host="65bd71144e">
    <diagram id="sUiZVK8AUsTvB6bw2Gps" name="Page-1">
        <mxGraphModel dx="1722" dy="784" grid="1" gridSize="10" guides="1" tooltips="1" connect="1" arrows="1" fold="1" page="1" pageScale="1" pageWidth="1100" pageHeight="850" background="#333333" math="0" shadow="0">
            <root>
                <mxCell id="0"/>
                <mxCell id="1" parent="0"/>
                <mxCell id="100" value="Kalimu" style="swimlane;startSize=20;horizontal=1;containerType=tree;rounded=1;comic=0;sketch=0;fillStyle=solid;strokeWidth=1;" vertex="1" parent="1">
                    <mxGeometry width="1100" height="850" as="geometry"/>
                </mxCell>
                <mxCell id="102" value="Learning Path" style="whiteSpace=wrap;html=1;treeFolding=1;treeMoving=1;newEdgeStyle={&quot;edgeStyle&quot;:&quot;elbowEdgeStyle&quot;,&quot;startArrow&quot;:&quot;none&quot;,&quot;endArrow&quot;:&quot;none&quot;};rounded=1;comic=0;sketch=0;fillStyle=solid;strokeWidth=1;" vertex="1" parent="100">
                    <mxGeometry x="490" y="60" width="120" height="40" as="geometry"/>
                </mxCell>
                <mxCell id="112" value="Kalimu" style="swimlane;startSize=20;horizontal=1;containerType=tree;rounded=1;comic=0;sketch=0;fillStyle=solid;strokeWidth=1;" vertex="1" parent="100">
                    <mxGeometry width="1100" height="850" as="geometry"/>
                </mxCell>
                <mxCell id="113" value="" style="edgeStyle=elbowEdgeStyle;elbow=vertical;sourcePerimeterSpacing=0;targetPerimeterSpacing=0;startArrow=none;endArrow=none;rounded=0;curved=0;sketch=0;strokeWidth=1;" edge="1" parent="112" source="114" target="115">
                    <mxGeometry relative="1" as="geometry"/>
                </mxCell>
                <mxCell id="114" value="Learning Path" style="whiteSpace=wrap;html=1;treeFolding=1;treeMoving=1;newEdgeStyle={&quot;edgeStyle&quot;:&quot;elbowEdgeStyle&quot;,&quot;startArrow&quot;:&quot;none&quot;,&quot;endArrow&quot;:&quot;none&quot;};rounded=1;comic=0;sketch=0;fillStyle=solid;strokeWidth=1;" vertex="1" parent="112">
                    <mxGeometry x="460" y="40" width="180" height="90" as="geometry"/>
                </mxCell>
                <mxCell id="117" style="edgeStyle=elbowEdgeStyle;sketch=0;html=1;startArrow=none;endArrow=none;exitX=0.25;exitY=1;exitDx=0;exitDy=0;entryX=1;entryY=0.5;entryDx=0;entryDy=0;strokeColor=#FFFFFF;strokeWidth=1;" edge="1" parent="112" source="115" target="116">
                    <mxGeometry relative="1" as="geometry"/>
                </mxCell>
                <mxCell id="115" value="College Planning" style="whiteSpace=wrap;html=1;treeFolding=1;treeMoving=1;newEdgeStyle={&quot;edgeStyle&quot;:&quot;elbowEdgeStyle&quot;,&quot;startArrow&quot;:&quot;none&quot;,&quot;endArrow&quot;:&quot;none&quot;};rounded=1;comic=0;sketch=0;fillStyle=solid;strokeWidth=1;" vertex="1" parent="112">
                    <mxGeometry x="150" y="250" width="120" height="40" as="geometry"/>
                </mxCell>
                <mxCell id="116" value="College Finder" style="whiteSpace=wrap;html=1;align=center;verticalAlign=middle;treeFolding=1;treeMoving=1;newEdgeStyle={&quot;edgeStyle&quot;:&quot;elbowEdgeStyle&quot;,&quot;startArrow&quot;:&quot;none&quot;,&quot;endArrow&quot;:&quot;none&quot;};rounded=1;comic=0;sketch=0;fillStyle=solid;strokeWidth=1;" vertex="1" parent="112">
                    <mxGeometry x="40" y="360" width="100" height="40" as="geometry"/>
                </mxCell>
                <mxCell id="124" value="Financial Guide&lt;br&gt;" style="whiteSpace=wrap;html=1;align=center;verticalAlign=middle;treeFolding=1;treeMoving=1;newEdgeStyle={&quot;edgeStyle&quot;:&quot;elbowEdgeStyle&quot;,&quot;startArrow&quot;:&quot;none&quot;,&quot;endArrow&quot;:&quot;none&quot;};rounded=1;comic=0;sketch=0;fillStyle=solid;strokeWidth=1;" vertex="1" parent="112">
                    <mxGeometry x="160" y="450" width="100" height="40" as="geometry"/>
                </mxCell>
                <mxCell id="125" style="edgeStyle=elbowEdgeStyle;sketch=0;html=1;startArrow=none;endArrow=none;strokeColor=#FFFFFF;strokeWidth=1;entryX=0.5;entryY=0;entryDx=0;entryDy=0;exitX=0.5;exitY=1;exitDx=0;exitDy=0;" edge="1" parent="112" source="115" target="124">
                    <mxGeometry relative="1" as="geometry">
                        <mxPoint x="220" y="290" as="sourcePoint"/>
                        <mxPoint x="190" y="440" as="targetPoint"/>
                        <Array as="points">
                            <mxPoint x="210" y="370"/>
                        </Array>
                    </mxGeometry>
                </mxCell>
                <mxCell id="128" value="Admission Tips" style="whiteSpace=wrap;html=1;align=center;verticalAlign=middle;treeFolding=1;treeMoving=1;newEdgeStyle={&quot;edgeStyle&quot;:&quot;elbowEdgeStyle&quot;,&quot;startArrow&quot;:&quot;none&quot;,&quot;endArrow&quot;:&quot;none&quot;};rounded=1;comic=0;sketch=0;fillStyle=solid;strokeWidth=1;" vertex="1" parent="112">
                    <mxGeometry x="260" y="360" width="100" height="40" as="geometry"/>
                </mxCell>
                <mxCell id="129" style="edgeStyle=elbowEdgeStyle;sketch=0;html=1;startArrow=none;endArrow=none;strokeColor=#FFFFFF;strokeWidth=1;entryX=0.5;entryY=0;entryDx=0;entryDy=0;exitX=0.75;exitY=1;exitDx=0;exitDy=0;" edge="1" parent="112" source="115" target="128">
                    <mxGeometry relative="1" as="geometry">
                        <mxPoint x="210" y="290" as="sourcePoint"/>
                        <mxPoint x="210" y="450" as="targetPoint"/>
                        <Array as="points">
                            <mxPoint x="240" y="330"/>
                        </Array>
                    </mxGeometry>
                </mxCell>
            </root>
        </mxGraphModel>
    </diagram>
</mxfile>